<?xml version="1.0" encoding="UTF-8" standalone="no"?>
<svg width="130px" height="130px" viewBox="0 0 130 130" version="1.1" xmlns="http://www.w3.org/2000/svg" xmlns:xlink="http://www.w3.org/1999/xlink" xmlns:sketch="http://www.bohemiancoding.com/sketch/ns">
    <!-- Generator: Sketch 3.4.4 (17249) - http://www.bohemiancoding.com/sketch -->
    <title>Icon 8</title>
    <desc>Created with Sketch.</desc>
    <defs></defs>
    <g id="Page-1" stroke="none" stroke-width="1" fill="none" fill-rule="evenodd" sketch:type="MSPage">
        <g id="Desktop-HD" sketch:type="MSArtboardGroup" transform="translate(-805.000000, -3149.000000)">
            <g id="How-work" sketch:type="MSLayerGroup" transform="translate(162.000000, 3056.000000)">
                <g id="Icon-8" transform="translate(644.000000, 94.000000)" sketch:type="MSShapeGroup">
                    <ellipse id="Oval-2" stroke="#004EC3" stroke-width="2" cx="64" cy="64" rx="64" ry="64"></ellipse>
                    <path d="M94.784,51.2 L94.784,79.68 L98.624,79.68 L98.624,84.928 L100.864,84.928 L100.864,92.032 L27.136,92.032 L27.136,84.928 L29.376,84.928 L29.376,79.68 L33.152,79.68 L33.152,51.2 L29.376,51.2 L29.376,40.704 L43.328,40.704 L64,23.808 L84.672,40.704 L98.624,40.704 L98.624,51.2 L94.784,51.2 L94.784,51.2 Z M64,33.152 L65.664,38.272 L70.976,38.272 L66.624,41.344 L68.288,46.464 L64,43.328 L59.712,46.464 L61.312,41.344 L57.024,38.272 L62.336,38.272 L64,33.152 L64,33.152 Z M42.816,51.2 L85.184,51.2 L85.184,79.296 L76.672,79.296 L76.672,57.856 L68.224,57.856 L68.224,79.296 L59.712,79.296 L59.712,57.856 L51.328,57.856 L51.328,79.296 L42.816,79.296 L42.816,51.2 L42.816,51.2 Z" id="Shape" fill="#004EC3"></path>
                </g>
            </g>
        </g>
    </g>
</svg>