<?xml version="1.0" encoding="UTF-8" standalone="no"?>
<svg width="130px" height="130px" viewBox="0 0 130 130" version="1.1" xmlns="http://www.w3.org/2000/svg" xmlns:xlink="http://www.w3.org/1999/xlink" xmlns:sketch="http://www.bohemiancoding.com/sketch/ns">
    <!-- Generator: Sketch 3.4.4 (17249) - http://www.bohemiancoding.com/sketch -->
    <title>Icon 6</title>
    <desc>Created with Sketch.</desc>
    <defs></defs>
    <g id="Page-1" stroke="none" stroke-width="1" fill="none" fill-rule="evenodd" sketch:type="MSPage">
        <g id="Desktop-HD" sketch:type="MSArtboardGroup" transform="translate(-204.000000, -3149.000000)">
            <g id="How-work" sketch:type="MSLayerGroup" transform="translate(162.000000, 3056.000000)">
                <g id="Icon-6" transform="translate(43.000000, 94.000000)" sketch:type="MSShapeGroup">
                    <ellipse id="Oval-1" stroke="#004EC3" stroke-width="2" cx="64" cy="64" rx="64" ry="64"></ellipse>
                    <path d="M67.2987296,53.5209774 C67.0427296,56.8489774 66.7227296,60.1769774 66.4027296,63.5049774 C69.4107296,62.8009774 72.4187296,62.1609774 75.4267296,61.4569774 C78.4987296,60.6889774 80.8667296,59.2809774 81.2507296,57.1049774 C81.3787296,56.3369774 80.3547296,55.5049774 79.1387296,55.8889774 C75.9387296,56.8489774 72.8667296,58.1289774 70.7547296,54.3529774 C73.6987296,51.4089774 76.6427296,49.3609774 79.6507296,49.1049774 C83.1707296,48.8489774 88.3547296,50.7049774 88.5467296,55.6969774 C88.6747296,59.2169774 86.8187296,63.5689774 84.0027296,65.2969774 C78.6267296,68.4969774 72.0987296,69.1369774 66.0187296,70.6729774 C58.8507296,72.4649774 52.7067296,75.4089774 59.6827296,81.1049774 C59.8107296,82.1929774 59.8747296,82.7689774 60.0027296,83.9849774 C59.1707296,84.6249774 57.8907296,85.7129774 56.8667296,86.4809774 C55.9707296,85.9689774 54.8187296,85.3289774 54.3707296,85.0729774 C49.1867296,81.7449774 48.2267296,75.6649774 50.5307296,71.9529774 C53.0267296,67.9209774 57.0587296,66.3209774 61.9867296,64.4649774 L61.0267296,53.5209774 C56.7387296,50.0009774 52.3227296,46.0329774 47.2667296,46.4809774 C42.5307296,46.9289774 40.3547296,51.3449774 36.3227296,52.1769774 C35.1067296,52.4329774 33.2507296,51.4089774 33.8267296,49.3609774 C31.5227296,50.3209774 23.6507296,52.7529774 24.9307296,47.5049774 C18.8507296,49.4889774 10.7867296,44.9449774 15.3307296,42.3849774 C25.9547296,36.3689774 31.3947296,26.1289774 43.5547296,26.0009774 C51.1707296,25.8729774 55.0747296,38.3529774 61.1547296,42.4489774 C61.2827296,41.0409774 61.4107296,39.6329774 61.5387296,38.1609774 C60.0027296,37.2649774 58.9787296,35.6649774 58.9787296,33.7449774 C58.9787296,30.9289774 61.2827296,28.6249774 64.0987296,28.6249774 C66.9147296,28.6249774 69.2187296,30.9289774 69.2187296,33.7449774 C69.2187296,35.6649774 68.1947296,37.2649774 66.7227296,38.1609774 C66.8507296,39.6329774 66.9787296,41.0409774 67.1707296,42.4489774 C73.2507296,38.3529774 77.1547296,25.8729774 84.7707296,26.0009774 C96.9307296,26.1289774 102.37073,36.3689774 112.99473,42.3849774 C117.47473,44.9449774 109.47473,49.4889774 103.33073,47.5049774 C104.67473,52.7529774 96.8027296,50.3209774 94.4987296,49.3609774 C95.0747296,51.4089774 93.2187296,52.4329774 92.0027296,52.1769774 C87.9707296,51.3449774 85.7947296,46.9289774 81.0587296,46.4809774 C76.0027296,46.0329774 71.5867296,50.0009774 67.2987296,53.5209774 L67.2987296,53.5209774 Z M57.6347296,62.9929774 C55.1387296,64.4009774 51.6827296,66.8329774 50.1467296,68.4329774 C44.4507296,66.8329774 39.6507296,61.9689774 39.9067296,55.6969774 C40.0987296,50.7049774 45.2187296,48.8489774 48.8027296,49.1049774 C51.8107296,49.3609774 54.7547296,51.4089774 57.6987296,54.3529774 C55.5867296,58.1289774 52.5147296,56.8489774 49.3147296,55.8889774 C48.0347296,55.5049774 47.0107296,56.3369774 47.1387296,57.1049774 C47.7147296,60.2409774 53.8587296,62.2889774 57.6347296,62.9929774 L57.6347296,62.9929774 Z M62.4347296,94.0329774 C62.8187296,95.6969774 63.3947296,98.1929774 64.5467296,98.5129774 C65.6987296,98.1929774 66.1467296,95.6969774 66.4027296,94.0329774 C65.9547296,93.5209774 65.0587296,92.8169774 64.4187296,92.4969774 C63.5867296,93.0729774 63.0747296,93.3929774 62.4347296,94.0329774 L62.4347296,94.0329774 Z M61.7307296,74.2569774 C61.9867296,78.0329774 62.0507296,81.8729774 62.2427296,85.6489774 C59.7467296,87.4409774 57.1227296,89.4249774 55.0107296,91.6649774 C52.0027296,94.8009774 53.2827296,103.248977 59.2987296,102.928977 C57.1227296,99.0249774 57.1867296,97.1049774 58.9787296,95.0569774 C61.4107296,92.1129774 67.1707296,88.9129774 73.1867296,85.3929774 C79.1387296,82.0009774 80.2907296,74.9609774 76.5787296,70.4169774 C74.0827296,70.9929774 72.4187296,71.3769774 68.8987296,72.2089774 C74.4027296,78.4809774 68.0667296,81.6169774 66.2747296,82.8329774 C66.2747296,79.5049774 66.6587296,75.9209774 66.6587296,72.5929774 C64.9307296,72.9129774 63.1387296,73.4889774 61.7307296,74.2569774 L61.7307296,74.2569774 Z M65.5067296,91.8569774 C66.7867296,92.8169774 68.7067296,94.0969774 69.4747296,94.9929774 C71.2667296,97.1049774 71.0747296,99.0249774 68.8987296,102.928977 C74.8507296,103.248977 76.3227296,94.8649774 73.1867296,91.6649774 C72.3547296,90.8329774 71.2027296,89.6809774 70.3067296,88.9129774 C68.7707296,89.9369774 67.0427296,90.8329774 65.5067296,91.8569774 L65.5067296,91.8569774 Z" id="Shape" fill="#004EC3"></path>
                </g>
            </g>
        </g>
    </g>
</svg>