<?xml version="1.0" encoding="UTF-8" standalone="no"?>
<svg width="97px" height="126px" viewBox="0 0 97 126" version="1.1" xmlns="http://www.w3.org/2000/svg" xmlns:xlink="http://www.w3.org/1999/xlink" xmlns:sketch="http://www.bohemiancoding.com/sketch/ns">
    <!-- Generator: Sketch 3.4.4 (17249) - http://www.bohemiancoding.com/sketch -->
    <title>Icon 9</title>
    <desc>Created with Sketch.</desc>
    <defs></defs>
    <g id="Page-1" stroke="none" stroke-width="1" fill="none" fill-rule="evenodd" sketch:type="MSPage">
        <g id="Desktop-HD" sketch:type="MSArtboardGroup" transform="translate(-1121.000000, -3150.000000)" fill="#C80003">
            <g id="How-work" sketch:type="MSLayerGroup" transform="translate(162.000000, 3056.000000)">
                <g id="Icon-9" transform="translate(959.000000, 94.000000)" sketch:type="MSShapeGroup">
                    <path d="M0,0 L90.816,0 C93.984,0 96.5653333,2.57462857 96.5653333,5.7344 L96.5653333,119.954286 C96.5653333,123.114057 93.984,125.688686 90.816,125.688686 L0,125.688686 L0,0 L0,0 Z M26.5173333,101.346743 L70.1653333,101.346743 L70.1653333,111.060114 L26.5173333,111.060114 L26.5173333,101.346743 L26.5173333,101.346743 Z M14.5493333,10.8836571 L82.1333333,10.8836571 L82.1333333,16.5010286 L14.5493333,16.5010286 L14.5493333,10.8836571 L14.5493333,10.8836571 Z M14.5493333,85.6649143 L82.1333333,85.6649143 L82.1333333,95.2612571 L14.5493333,95.2612571 L14.5493333,85.6649143 L14.5493333,85.6649143 Z M27.9253333,46.6944 L39.776,55.2374857 L35.3173333,69.0468571 C35.2,69.3979429 35.3173333,69.7490286 35.552,69.9830857 C35.904,70.2171429 36.256,70.2171429 36.4906667,69.9830857 L48.3413333,61.44 L60.192,69.9830857 C60.4266667,70.2171429 60.7786667,70.2171429 61.1306667,69.9830857 C61.3653333,69.7490286 61.4826667,69.3979429 61.3653333,69.0468571 L56.9066667,55.2374857 L68.7573333,46.6944 C68.992,46.4603429 69.1093333,46.1092571 68.992,45.7581714 C68.8746667,45.4070857 68.64,45.1730286 68.288,45.1730286 L53.6213333,45.1730286 L49.0453333,31.3636571 C49.0453333,31.0125714 48.6933333,30.7785143 48.3413333,30.7785143 C47.9893333,30.7785143 47.6373333,31.0125714 47.52,31.3636571 L43.0613333,45.1730286 L28.3946667,45.1730286 C28.0426667,45.1730286 27.808,45.4070857 27.6906667,45.7581714 C27.5733333,46.1092571 27.6906667,46.4603429 27.9253333,46.6944 L27.9253333,46.6944 Z" id="Shape"></path>
                </g>
            </g>
        </g>
    </g>
</svg>