<?xml version="1.0" encoding="UTF-8" standalone="no"?>
<svg width="130px" height="130px" viewBox="0 0 130 130" version="1.1" xmlns="http://www.w3.org/2000/svg" xmlns:xlink="http://www.w3.org/1999/xlink" xmlns:sketch="http://www.bohemiancoding.com/sketch/ns">
    <!-- Generator: Sketch 3.4.4 (17249) - http://www.bohemiancoding.com/sketch -->
    <title>Icon 7</title>
    <desc>Created with Sketch.</desc>
    <defs></defs>
    <g id="Page-1" stroke="none" stroke-width="1" fill="none" fill-rule="evenodd" sketch:type="MSPage">
        <g id="Desktop-HD" sketch:type="MSArtboardGroup" transform="translate(-510.000000, -3149.000000)">
            <g id="How-work" sketch:type="MSLayerGroup" transform="translate(162.000000, 3056.000000)">
                <g id="Icon-7" transform="translate(349.000000, 94.000000)" sketch:type="MSShapeGroup">
                    <circle id="Oval-3" stroke="#004EC3" stroke-width="2" cx="64" cy="64" r="64"></circle>
                    <path d="M56.672,28.672 C54.048,29.312 51.808,30.464 50.4,32.448 C48.928,34.432 48.224,37.312 48.48,41.408 C48.864,46.912 51.808,53.44 56.096,58.368 C59.872,62.72 64.672,65.792 69.536,65.792 C74.464,65.792 79.264,62.72 83.04,58.368 C87.264,53.44 90.272,46.912 90.592,41.408 C90.912,37.312 90.144,34.432 88.736,32.448 C87.264,30.464 85.088,29.312 82.4,28.672 C81.376,28.416 80.672,28.864 79.968,29.248 C79.2,29.696 78.368,30.208 77.024,30.08 C75.744,29.952 74.976,29.504 74.464,28.736 C74.08,27.968 73.952,27.072 73.952,25.984 C73.952,24.896 74.016,23.808 74.528,23.04 C75.104,22.144 76.128,21.632 77.92,21.76 C79.008,21.824 79.776,22.272 80.608,22.848 L80.608,22.848 C81.312,23.296 82.08,23.808 83.104,24 L83.104,24 C84.192,24.256 85.28,24.576 86.304,24.96 C87.392,25.344 88.352,25.856 89.312,26.432 C92.832,28.864 94.816,32.128 95.52,35.904 C96.288,39.68 95.776,44.032 94.432,48.32 C93.088,52.672 90.912,56.96 88.352,60.864 C83.424,68.16 77.024,73.92 71.776,75.264 L71.776,95.616 C71.776,98.048 71.136,100.032 70.048,101.632 C68.832,103.424 67.104,104.704 65.184,105.472 C64.48,105.728 63.776,105.92 63.072,106.048 C62.304,106.176 61.536,106.24 60.832,106.24 C60.064,106.24 59.36,106.176 58.592,106.048 C57.888,105.92 57.12,105.728 56.48,105.472 C54.496,104.704 52.768,103.424 51.616,101.632 C50.528,100.032 49.888,98.048 49.888,95.616 L49.888,81.984 C49.888,81.856 49.888,81.728 49.824,81.6 L49.824,81.6 L49.824,81.536 C49.568,82.304 49.248,83.072 48.864,83.712 C48.352,84.736 47.648,85.632 46.88,86.4 C45.792,87.488 44.512,88.32 43.04,88.96 L43.04,88.96 C41.696,89.536 40.16,89.856 38.56,89.856 C36.96,89.856 35.424,89.536 34.08,88.96 C32.608,88.32 31.328,87.488 30.24,86.4 C29.152,85.312 28.256,84.032 27.68,82.56 C27.104,81.216 26.784,79.68 26.784,78.08 C26.784,76.48 27.104,74.944 27.68,73.6 L27.68,73.6 C28.256,72.128 29.152,70.848 30.24,69.76 C31.328,68.672 32.608,67.776 34.08,67.2 C35.424,66.624 36.96,66.304 38.56,66.304 C40.16,66.304 41.696,66.624 43.04,67.2 L43.04,67.2 C44.512,67.776 45.792,68.672 46.88,69.76 C47.84,70.72 48.608,71.808 49.184,73.024 C49.696,74.112 50.016,75.2 50.208,76.416 C50.656,76.544 51.104,76.672 51.488,76.864 C52,77.184 52.512,77.504 52.96,77.952 L52.96,77.952 L52.96,77.952 L52.96,77.952 L52.96,77.952 C53.472,78.464 53.92,79.104 54.176,79.808 C54.496,80.448 54.624,81.216 54.624,81.984 L54.624,95.616 C54.624,96.96 55.008,98.112 55.584,98.944 C56.224,99.968 57.12,100.608 58.208,101.056 C58.592,101.184 59.04,101.312 59.488,101.376 C59.872,101.504 60.384,101.504 60.832,101.504 C61.728,101.504 62.624,101.376 63.456,101.056 C64.544,100.608 65.44,99.968 66.08,98.944 C66.656,98.112 67.04,96.96 67.04,95.616 L67.04,75.136 C61.792,73.664 55.584,67.968 50.784,60.864 C48.096,56.896 45.856,52.416 44.576,48 C43.232,43.584 42.784,39.168 43.68,35.328 C44.512,31.808 46.432,28.736 49.824,26.432 C50.72,25.856 51.744,25.344 52.768,24.96 C53.792,24.576 54.88,24.256 55.968,24 L55.968,24 C57.056,23.808 57.824,23.296 58.464,22.848 L58.464,22.848 C59.296,22.272 60.064,21.824 61.152,21.76 C63.008,21.632 64.032,22.144 64.608,22.976 C65.184,23.808 65.248,24.896 65.248,25.984 C65.248,27.072 65.12,28.032 64.672,28.736 C64.16,29.504 63.392,29.952 62.112,30.08 C60.768,30.208 59.936,29.696 59.104,29.248 C58.4,28.864 57.696,28.416 56.672,28.672 L56.672,28.672 Z M38.56,72.448 C40.096,72.448 41.504,73.088 42.528,74.112 L42.528,74.112 C43.552,75.136 44.192,76.544 44.192,78.08 C44.192,79.616 43.552,81.024 42.528,82.048 L42.528,82.048 C41.504,83.072 40.096,83.712 38.56,83.712 C37.024,83.712 35.616,83.072 34.592,82.048 C33.568,81.024 32.928,79.616 32.928,78.08 C32.928,76.544 33.568,75.136 34.592,74.112 L34.592,74.112 C35.616,73.088 37.024,72.448 38.56,72.448 L38.56,72.448 Z M43.552,73.088 C42.912,72.448 42.08,71.936 41.248,71.552 C40.416,71.232 39.52,71.04 38.56,71.04 C37.6,71.04 36.704,71.232 35.872,71.552 C35.04,71.936 34.272,72.448 33.568,73.088 L33.568,73.088 C32.928,73.728 32.416,74.56 32.096,75.392 L32.096,75.392 C31.712,76.224 31.52,77.12 31.52,78.08 C31.52,79.04 31.712,79.936 32.096,80.768 L32.096,80.768 C32.416,81.6 32.928,82.368 33.568,83.072 C34.272,83.712 35.04,84.224 35.872,84.544 L35.872,84.544 C36.704,84.928 37.6,85.12 38.56,85.12 C39.52,85.12 40.416,84.928 41.248,84.544 L41.248,84.544 C42.08,84.224 42.848,83.712 43.552,83.072 L43.552,83.072 C44.192,82.368 44.704,81.6 45.024,80.768 C45.408,79.936 45.6,79.04 45.6,78.08 C45.6,77.12 45.408,76.224 45.024,75.392 C44.704,74.56 44.192,73.728 43.552,73.088 L43.552,73.088 Z" id="Shape" fill="#004EC3"></path>
                </g>
            </g>
        </g>
    </g>
</svg>