<?xml version="1.0" encoding="UTF-8" standalone="no"?>
<svg width="16px" height="16px" viewBox="0 0 16 16" version="1.1" xmlns="http://www.w3.org/2000/svg" xmlns:xlink="http://www.w3.org/1999/xlink" xmlns:sketch="http://www.bohemiancoding.com/sketch/ns">
    <!-- Generator: Sketch 3.4.4 (17249) - http://www.bohemiancoding.com/sketch -->
    <title>Shape</title>
    <desc>Created with Sketch.</desc>
    <defs></defs>
    <g id="Page-1" stroke="none" stroke-width="1" fill="none" fill-rule="evenodd" sketch:type="MSPage">
        <g id="Desktop-HD" sketch:type="MSArtboardGroup" transform="translate(-1060.000000, -219.000000)" fill="#666666">
            <g id="Form" sketch:type="MSLayerGroup">
                <g transform="translate(335.000000, 190.000000)" id="Shape" sketch:type="MSShapeGroup">
                    <path d="M733.74474,37.0000982 L740.345457,43.6004586 C740.551395,43.8063964 740.551395,44.1401085 740.345457,44.3456894 C740.139877,44.5516272 739.806521,44.5516272 739.600584,44.3456894 L733.000223,37.744972 L726.399506,44.3456894 C726.193925,44.5516272 725.859856,44.5516272 725.654275,44.3456894 C725.448694,44.1401085 725.448694,43.8063964 725.654275,43.6004586 L732.254992,37.0000982 L725.654275,30.3997377 C725.448694,30.1945137 725.448694,29.8600878 725.654275,29.6548638 C725.859856,29.4485691 726.193925,29.4485691 726.399506,29.6548638 L733.000223,36.2552243 L739.600584,29.6548638 C739.806521,29.4485691 740.139877,29.4485691 740.345457,29.6548638 C740.551395,29.8600878 740.551395,30.1945137 740.345457,30.3997377 L733.74474,37.0000982 L733.74474,37.0000982 Z"></path>
                </g>
            </g>
        </g>
    </g>
</svg>